Motion_pl05
version=1
nRows=6
nColumns=43
inDegrees=yes
endheader
time	pelvis_tilt	pelvis_list	pelvis_rotation	pelvis_tx	pelvis_ty	pelvis_tz	hip_flexion_r	hip_adduction_r	hip_rotation_r	knee_angle_r	ankle_angle_r	subtalar_angle_r	mtp_angle_r	hip_flexion_l	hip_adduction_l	hip_rotation_l	knee_angle_l	ankle_angle_l	subtalar_angle_l	mtp_angle_l	lumbar_extension	lumbar_bending	lumbar_rotation	neck_flexion	neck_lateral_bending	neck_rotation	arm_flex_r	arm_add_r	arm_rot_r	elbow_flex_r	pro_sup_r	wrist_flex_r	wrist_dev_r	hand_finger_flex_r	arm_flex_l	arm_add_l	arm_rot_l	elbow_flex_l	pro_sup_l	wrist_flex_l	wrist_dev_l	hand_finger_flex_l
      0.66500000	      3.55584635	    -19.30516828	     88.78608212	      0.06405590	      1.80559737	      1.87285131	     83.04506277	      7.62303288	     -3.30147018	   -126.49225534	     27.96615145	     -4.79738825	     -2.19278983	     84.76987585	    -10.37217394	      2.30850669	   -130.56462320	     20.78378338	     -1.72445922	     27.20462784	    -50.18977988	     -1.19839032	      3.85269000	     39.33604702	     -0.23280707	      1.61070329	     62.72165778	    -24.94692533	     11.98746862	     85.13634288	    152.64870536	      2.31954356	      5.39686050	    -27.70761229	     62.10740232	    -28.36929028	      5.97189446	     87.97778240	    118.92168477	     -5.46465853	     -1.79713328	     25.53155550
      0.66750000	      3.57200517	    -19.47202773	     88.82183783	      0.06407825	      1.80686564	      1.87135457	     82.92354194	      7.60506402	     -3.29522782	   -126.29152689	     27.94602213	     -4.77616487	     -2.23566105	     84.63820538	    -10.38489929	      2.29003851	   -130.35369593	     20.78132642	     -1.69448498	     27.21012916	    -49.96649425	     -1.16375834	      3.83292037	     39.30428756	     -0.27300491	      1.65177640	     63.54169922	    -24.93975209	     12.16179416	     85.17429907	    152.54536939	      2.43314093	      5.33074537	    -27.62319909	     63.14878733	    -28.39305058	      6.38635100	     88.07858793	    118.98818341	     -5.40308476	     -1.79194300	     25.52626141
      0.67000000	      3.56985924	    -19.51899119	     88.86904831	      0.06409153	      1.80838371	      1.86967659	     82.63480157	      7.57053318	     -3.28631043	   -126.07917170	     27.92825669	     -4.77650848	     -2.32151823	     84.34743179	    -10.37113702	      2.26331792	   -130.12454978	     20.77899262	     -1.63228997	     27.21995754	    -49.88012637	     -1.14914178	      3.80620206	     39.20544171	     -0.26511336	      1.66573845	     64.33744895	    -25.03980889	     12.37708788	     85.31976012	    152.31023667	      2.57937721	      5.30145450	    -27.48363418	     64.26478061	    -28.50786510	      6.97328645	     88.20653638	    119.04459149	     -5.35535389	     -1.75143377	     25.52274652
      0.67250000	      3.58463218	    -19.67037168	     88.90093220	      0.06409713	      1.80965361	      1.86810641	     82.49526697	      7.57958784	     -3.26077856	   -125.89358053	     27.93889177	     -4.78773439	     -2.37328833	     84.19849607	    -10.38932877	      2.24494811	   -129.92683878	     20.78535794	     -1.58461099	     27.22571946	    -49.66610546	     -1.11540548	      3.80102439	     39.24201427	     -0.30209878	      1.67933221	     65.14184298	    -24.97130554	     12.49292125	     85.31475479	    152.19314805	      2.67420570	      5.29331785	    -27.39819413	     65.28632443	    -28.41834989	      7.29743963	     88.24874106	    119.07523876	     -5.32826769	     -1.71608024	     25.52580673
      0.67500000	      3.59538581	    -19.79696820	     88.93725747	      0.06410941	      1.81105186	      1.86647295	     82.30288994	      7.58666215	     -3.23376569	   -125.67686357	     27.93131861	     -4.80025759	     -2.43978887	     84.00187689	    -10.39400610	      2.23397154	   -129.70071007	     20.78219057	     -1.51494464	     27.23201575	    -49.48527431	     -1.08583097	      3.78625979	     39.20455179	     -0.33535408	      1.69270264	     65.95254845	    -24.99754548	     12.69556039	     85.36249244	    152.07372768	      2.79798140	      5.27132916	    -27.29646181	     66.36481301	    -28.44293468	      7.76413593	     88.31541725	    119.12165651	     -5.24118728	     -1.67950594	     25.56323700
      0.67750000	      3.55602274	    -19.68093945	     88.96674776	      0.06418820	      1.81302800	      1.86453822	     81.78762622	      7.59611221	     -3.16585156	   -125.43597503	     27.95670822	     -4.86560372	     -2.68851789	     83.47309521	    -10.39714647	      2.17317627	   -129.43246092	     20.80989834	     -1.33823446	     27.25732035	    -49.59435346	     -1.14089080	      3.77392361	     39.14716435	     -0.23069883	      1.59779411	     66.72029587	    -25.09370783	     12.82144834	     85.54465526	    151.64092677	      2.91611602	      5.52295490	    -27.08733428	     67.59881650	    -28.45592139	      8.43248870	     88.35622580	    118.96004968	     -5.31405606	     -1.50293121	     25.66698979
